<svg width="28" height="26" viewBox="0 0 28 26" fill="none" xmlns="http://www.w3.org/2000/svg">
<path d="M23.0781 12.1043C24.097 10.8835 24.6983 9.21941 24.6983 7.44477C24.6983 3.7777 22.1499 0.794189 19.0178 0.794189C16.8449 0.794189 14.9548 2.23083 14.0001 4.33473C13.0455 2.23083 11.1554 0.794189 8.98254 0.794189C5.8501 0.794189 3.30202 3.7777 3.30202 7.44477C3.30202 9.22348 3.90268 10.885 4.92191 12.104C3.1403 12.9417 0 14.5128 0 19.2427V20.988H1.74526H5.35822C5.14385 21.6997 5.01703 22.5165 5.01703 23.4607V25.2059H6.76228H13.9481H14.0508H21.2366H22.9818V23.4607C22.9818 22.5165 22.855 21.6997 22.6406 20.988H26.2547H28V19.2427C28 14.5131 24.8597 12.942 23.0781 12.1043ZM6.17268 19.2427H1.74526C1.74526 13.9874 6.36058 13.9889 7.38476 12.6148L7.50198 11.9883C6.06302 11.2587 5.04728 9.50098 5.04728 7.44448C5.04728 4.73556 6.8094 2.53915 8.98254 2.53915C10.5219 2.53915 11.8506 3.6439 12.4966 5.24983C10.0916 6.02355 8.31905 8.60479 8.31905 11.6625C8.31905 13.4412 8.91971 15.1027 9.93894 16.3214C8.84815 16.8345 7.2495 17.6237 6.17268 19.2427ZM14.0508 23.4607H13.9481H6.76228C6.76228 18.2057 11.3776 18.2069 12.4018 16.8328L12.519 16.2062C11.08 15.4767 10.0643 13.719 10.0643 11.6625C10.0643 8.95355 11.8264 6.75714 13.9996 6.75714C16.1727 6.75714 17.9348 8.95355 17.9348 11.6625C17.9348 13.7009 16.9371 15.4482 15.5174 16.1888L15.6509 16.9011C16.7745 18.2086 21.2363 18.2939 21.2363 23.4607H14.0508ZM21.8262 19.2427C20.7493 17.624 19.1504 16.8348 18.0599 16.322C19.0788 15.1012 19.6801 13.4371 19.6801 11.6625C19.6801 8.60479 17.9078 6.02414 15.5034 5.25012C16.1494 3.6439 17.4784 2.53915 19.0178 2.53915C21.1912 2.53915 22.953 4.73556 22.953 7.44448C22.953 9.48323 21.9553 11.2302 20.5355 11.9711L20.6691 12.6834C21.7927 13.9909 26.2545 14.0762 26.2545 19.2427H21.8262Z" fill="black"/>
</svg>
